<svg width="40" height="40" viewBox="0 0 40 40" fill="none" xmlns="http://www.w3.org/2000/svg">
  <defs>
    <linearGradient id="logo-bg" x1="0" y1="0" x2="40" y2="40" gradientUnits="userSpaceOnUse">
      <stop offset="0%" stop-color="#3730a3" />
      <stop offset="100%" stop-color="#1a1a2e" />
    </linearGradient>
    <linearGradient id="logo-shine" x1="0" y1="0" x2="0" y2="40" gradientUnits="userSpaceOnUse">
      <stop offset="0%" stop-color="white" stop-opacity="0.12" />
      <stop offset="100%" stop-color="white" stop-opacity="0" />
    </linearGradient>
  </defs>
  <rect width="40" height="40" rx="10" fill="url(#logo-bg)" />
  <rect width="40" height="40" rx="10" fill="url(#logo-shine)" />
  <rect x="0.75" y="0.75" width="38.5" height="38.5" rx="9.25" stroke="white" stroke-opacity="0.12" stroke-width="0.5" />
  <circle cx="16" cy="13" r="3.5" fill="white" fill-opacity="0.95" />
  <path d="M11 22 Q11 18 16 18 Q21 18 21 22" stroke="white" stroke-opacity="0.7" stroke-width="1.5" stroke-linecap="round" fill="none" />
  <rect x="9" y="24.5" width="13" height="1.7" rx="0.85" fill="white" fill-opacity="0.75" />
  <rect x="9" y="27.8" width="10" height="1.7" rx="0.85" fill="white" fill-opacity="0.55" />
  <rect x="9" y="31.1" width="7" height="1.7" rx="0.85" fill="white" fill-opacity="0.35" />
  <path d="M30 7.5 L31.6 10.4 L34.5 12 L31.6 13.6 L30 16.5 L28.4 13.6 L25.5 12 L28.4 10.4 Z" fill="#e8c56d" />
  <circle cx="30" cy="20" r="1.1" fill="#e8c56d" fill-opacity="0.45" />
</svg>
